<svg width="40" height="40" viewBox="0 0 40 40" fill="none" xmlns="http://www.w3.org/2000/svg">
<path d="M27.5584 10H12.4457C11.0966 10 10 11.441 10 13.2137V26.7863C10 28.559 11.0966 30 12.4457 30H27.5543C28.9034 30 30 28.559 30 26.7863V13.2191C30.0041 11.4464 28.9075 10 27.5584 10ZM28.8868 26.7863C28.8868 27.7488 28.2909 28.5318 27.5584 28.5318H12.4457C11.7132 28.5318 11.1173 27.7488 11.1173 26.7863V13.2191C11.1173 12.2567 11.7132 11.4736 12.4457 11.4736H27.5543C28.2868 11.4736 28.8827 12.2567 28.8827 13.2191V26.7863H28.8868Z" fill="#00B2FF"/>
<path d="M22.6133 19.8314L27.5046 14.0674C27.7322 13.7955 27.7529 13.3333 27.546 13.0288C27.3391 12.7298 26.9873 12.7026 26.7556 12.9745L20.0103 20.9299L18.6944 19.3855C18.6902 19.3801 18.6861 19.3747 18.6861 19.3692C18.6571 19.3312 18.6282 19.2985 18.595 19.2659L13.2402 12.969C13.0085 12.6971 12.6567 12.7243 12.4498 13.0288C12.2429 13.3333 12.2636 13.7955 12.4953 14.0674L17.4446 19.8804L12.516 25.9435C12.2925 26.2208 12.2801 26.683 12.4912 26.9821C12.6029 27.1343 12.7519 27.2159 12.9009 27.2159C13.0374 27.2159 13.174 27.1506 13.2816 27.0201L18.2847 20.87L19.642 22.4633C19.7496 22.5884 19.882 22.6482 20.0145 22.6482C20.1469 22.6482 20.2834 22.5829 20.3869 22.4579L21.7815 20.8157L26.7556 27.0256C26.8632 27.1615 27.0039 27.2268 27.1405 27.2268C27.2894 27.2268 27.4343 27.1506 27.546 26.9984C27.7571 26.7047 27.7488 26.2371 27.5253 25.9598L22.6133 19.8314Z" fill="#00B2FF"/>
</svg>
