<svg width="40" height="40" viewBox="0 0 40 40" fill="none" xmlns="http://www.w3.org/2000/svg">
<path d="M25.8147 22.3893C25.4047 21.9629 24.9101 21.735 24.3859 21.735C23.866 21.735 23.3672 21.9587 22.9402 22.3851L21.6044 23.7147C21.4945 23.6556 21.3846 23.6007 21.2789 23.5459C21.1267 23.4699 20.983 23.3981 20.8604 23.3222C19.6091 22.5286 18.472 21.4944 17.3813 20.1563C16.8529 19.4894 16.4978 18.9279 16.24 18.3581C16.5866 18.0415 16.9079 17.7123 17.2207 17.3957C17.339 17.2775 17.4574 17.1551 17.5758 17.0369C18.4635 16.1504 18.4635 15.0023 17.5758 14.1158L16.4217 12.9635C16.2907 12.8326 16.1554 12.6975 16.0286 12.5625C15.775 12.3008 15.5086 12.0306 15.2339 11.7773C14.8238 11.3721 14.3334 11.1568 13.8177 11.1568C13.302 11.1568 12.8032 11.3721 12.3804 11.7773C12.3762 11.7816 12.3762 11.7816 12.372 11.7858L10.9347 13.2336C10.3936 13.7739 10.085 14.4324 10.0174 15.1965C9.91594 16.429 10.2795 17.5772 10.5585 18.3285C11.2433 20.1732 12.2663 21.8827 13.7924 23.7147C15.6439 25.9224 17.8717 27.6657 20.4165 28.8941C21.3888 29.3542 22.6866 29.8987 24.1365 29.9916C24.2253 29.9958 24.3183 30 24.4028 30C25.3793 30 26.1994 29.6496 26.842 28.9532C26.8462 28.9447 26.8547 28.9405 26.8589 28.932C27.0787 28.6661 27.3323 28.4255 27.5987 28.168C27.7804 27.995 27.9664 27.8134 28.1482 27.6235C28.5667 27.1887 28.7865 26.6822 28.7865 26.163C28.7865 25.6396 28.5625 25.1372 28.1355 24.7151L25.8147 22.3893ZM27.3281 26.8341C27.3239 26.8341 27.3239 26.8384 27.3281 26.8341C27.1633 27.0114 26.9942 27.1718 26.8124 27.3491C26.5376 27.6108 26.2586 27.8852 25.9965 28.1933C25.5696 28.6492 25.0665 28.8645 24.4071 28.8645C24.3437 28.8645 24.276 28.8645 24.2126 28.8603C22.9571 28.7801 21.7904 28.2904 20.9153 27.8725C18.5227 26.7159 16.4217 25.0739 14.6759 22.9929C13.2344 21.258 12.2705 19.654 11.6322 17.9318C11.2391 16.8807 11.0954 16.0618 11.1588 15.2893C11.201 14.7955 11.3913 14.386 11.7421 14.0356L13.1836 12.5962C13.3908 12.4021 13.6106 12.2965 13.8262 12.2965C14.0925 12.2965 14.3081 12.4569 14.4434 12.592C14.4476 12.5962 14.4518 12.6005 14.456 12.6047C14.7139 12.8453 14.9591 13.0943 15.217 13.3603C15.348 13.4953 15.4833 13.6304 15.6185 13.7697L16.7726 14.9221C17.2207 15.3695 17.2207 15.7832 16.7726 16.2306C16.65 16.3531 16.5316 16.4755 16.409 16.5937C16.054 16.9567 15.7158 17.2944 15.348 17.6236C15.3395 17.6321 15.3311 17.6363 15.3269 17.6447C14.9633 18.0077 15.031 18.3623 15.107 18.6029C15.1113 18.6156 15.1155 18.6282 15.1197 18.6409C15.4199 19.3669 15.8426 20.0508 16.4851 20.8654L16.4894 20.8697C17.6561 22.3049 18.8862 23.4235 20.2432 24.2803C20.4165 24.3901 20.5941 24.4787 20.7631 24.5632C20.9153 24.6391 21.0591 24.7109 21.1816 24.7869C21.1986 24.7953 21.2155 24.808 21.2324 24.8164C21.3761 24.8882 21.5114 24.922 21.6509 24.922C22.0017 24.922 22.2216 24.7025 22.2934 24.6307L23.7392 23.1871C23.8829 23.0436 24.1112 22.8705 24.3775 22.8705C24.6396 22.8705 24.8552 23.0351 24.9862 23.1786C24.9904 23.1829 24.9904 23.1829 24.9947 23.1871L27.3239 25.5129C27.7593 25.9435 27.7593 26.3867 27.3281 26.8341Z" fill="#00B2FF"/>
<path d="M20.8096 14.7575C21.9171 14.9432 22.9232 15.4666 23.7264 16.2686C24.5296 17.0706 25.0496 18.0753 25.2398 19.1812C25.2863 19.4598 25.5272 19.654 25.802 19.654C25.8358 19.654 25.8654 19.6498 25.8992 19.6455C26.2121 19.5949 26.4192 19.2994 26.3685 18.987C26.1402 17.6489 25.5061 16.429 24.5381 15.4624C23.57 14.4958 22.3483 13.8626 21.0083 13.6346C20.6955 13.584 20.4038 13.7908 20.3488 14.099C20.2939 14.4071 20.4968 14.7068 20.8096 14.7575Z" fill="#00B2FF"/>
<path d="M29.9914 18.8224C29.6152 16.619 28.5752 14.6139 26.9773 13.0184C25.3794 11.4228 23.3715 10.3844 21.1648 10.0087C20.8562 9.95381 20.5645 10.1649 20.5096 10.473C20.4589 10.7854 20.666 11.0766 20.9788 11.1315C22.9487 11.465 24.7453 12.3979 26.1741 13.8204C27.603 15.2471 28.533 17.0411 28.8669 19.0082C28.9134 19.2867 29.1544 19.4809 29.4292 19.4809C29.463 19.4809 29.4926 19.4767 29.5264 19.4725C29.835 19.426 30.0463 19.1306 29.9914 18.8224Z" fill="#00B2FF"/>
</svg>
