<svg width="32" height="32" viewBox="0 0 32 32" fill="none" xmlns="http://www.w3.org/2000/svg">
<rect width="32" height="32" fill="#041827"/>
<path d="M18.5666 10.8665C19.044 10.8665 19.4473 11.1742 19.5991 11.5999H23.4007C23.5525 11.1742 23.9558 10.8665 24.4332 10.8665C25.0397 10.8665 25.5332 11.3601 25.5332 11.9665C25.5332 12.573 25.0397 13.0665 24.4332 13.0665C23.9558 13.0665 23.5525 12.7589 23.4007 12.3332H19.5987C19.4469 12.7589 19.0436 13.0665 18.5662 13.0665C17.9597 13.0665 17.4662 12.573 17.4662 11.9665C17.4662 11.3601 17.9601 10.8665 18.5666 10.8665ZM24.4332 12.3332C24.6352 12.3332 24.7999 12.1689 24.7999 11.9665C24.7999 11.7641 24.6352 11.5999 24.4332 11.5999C24.2312 11.5999 24.0665 11.7641 24.0665 11.9665C24.0665 12.1689 24.2312 12.3332 24.4332 12.3332ZM18.5666 12.3332C18.7686 12.3332 18.9332 12.1689 18.9332 11.9665C18.9332 11.7641 18.7686 11.5999 18.5666 11.5999C18.3645 11.5999 18.1999 11.7641 18.1999 11.9665C18.1999 12.1689 18.3645 12.3332 18.5666 12.3332Z" fill="#00B2FF"/>
<path d="M15.6338 13.134V10.8665C15.6338 10.769 15.6723 10.6759 15.7412 10.6073L17.2079 9.14068C17.2764 9.07174 17.3699 9.03324 17.4671 9.03324H18.6346C18.7864 8.60755 19.1897 8.29993 19.6671 8.29993C20.2736 8.29993 20.7671 8.79345 20.7671 9.3999C20.7671 10.0064 20.2736 10.4999 19.6671 10.4999C19.1897 10.4999 18.7864 10.1923 18.6346 9.76656H17.6189L16.3671 11.0183V13.134C16.7928 13.2858 17.1004 13.6891 17.1004 14.1665C17.1004 14.7729 16.6069 15.2664 16.0004 15.2664C15.394 15.2664 14.9004 14.7729 14.9004 14.1665C14.9004 13.6891 15.2081 13.2858 15.6338 13.134ZM19.6671 9.76656C19.8691 9.76656 20.0338 9.6023 20.0338 9.3999C20.0338 9.19751 19.8691 9.03324 19.6671 9.03324C19.4651 9.03324 19.3004 9.19751 19.3004 9.3999C19.3004 9.6023 19.4651 9.76656 19.6671 9.76656ZM16.0004 14.5331C16.2025 14.5331 16.3671 14.3689 16.3671 14.1665C16.3671 13.9641 16.2025 13.7998 16.0004 13.7998C15.7984 13.7998 15.6338 13.9641 15.6338 14.1665C15.6338 14.3689 15.7984 14.5331 16.0004 14.5331Z" fill="#00B2FF"/>
<path d="M9.03337 14.5331C9.20276 14.5331 9.36116 14.5746 9.50453 14.6435L10.1334 14.0147V10.4999C10.1334 10.4024 10.1719 10.3092 10.2408 10.2407L13.9104 6.57113C13.8414 6.42777 13.8 6.26937 13.8 6.09998C13.8 5.49352 14.2935 5 14.9 5C15.5065 5 16 5.49352 16 6.09998C16 6.70643 15.5065 7.19995 14.9 7.19995C14.7306 7.19995 14.5722 7.15852 14.4288 7.08959L10.8667 10.6517V14.1665C10.8667 14.264 10.8282 14.3571 10.7593 14.4257L10.023 15.162C10.0919 15.3053 10.1334 15.4637 10.1334 15.6331C10.1334 16.2396 9.63983 16.7331 9.03337 16.7331C8.4269 16.7331 7.93337 16.2396 7.93337 15.6331C7.93337 15.0267 8.4269 14.5331 9.03337 14.5331ZM14.9 6.46664C15.102 6.46664 15.2667 6.30237 15.2667 6.09998C15.2667 5.89758 15.102 5.73332 14.9 5.73332C14.698 5.73332 14.5333 5.89758 14.5333 6.09998C14.5333 6.30237 14.698 6.46664 14.9 6.46664ZM9.03337 15.9998C9.2354 15.9998 9.40003 15.8355 9.40003 15.6331C9.40003 15.4307 9.2354 15.2664 9.03337 15.2664C8.83133 15.2664 8.6667 15.4307 8.6667 15.6331C8.6667 15.8355 8.83133 15.9998 9.03337 15.9998Z" fill="#00B2FF"/>
<path d="M5.73356 10.2007V8.66659C5.73356 8.56906 5.77206 8.47593 5.84099 8.40736L8.40765 5.84075C8.47621 5.77182 8.56971 5.73332 8.66688 5.73332H10.5677C10.7195 5.30763 11.1228 5 11.6002 5C12.2067 5 12.7002 5.49352 12.7002 6.09998C12.7002 6.70643 12.2067 7.19995 11.6002 7.19995C11.1228 7.19995 10.7195 6.89233 10.5677 6.46664H8.81868L6.46689 8.81839V10.2007C6.89259 10.3525 7.20022 10.7558 7.20022 11.2332C7.20022 11.8397 6.70669 12.3332 6.10023 12.3332C5.49376 12.3332 5.00023 11.8397 5.00023 11.2332C5.00023 10.7558 5.30786 10.3525 5.73356 10.2007ZM11.6002 6.46664C11.8022 6.46664 11.9669 6.30237 11.9669 6.09998C11.9669 5.89758 11.8022 5.73332 11.6002 5.73332C11.3982 5.73332 11.2335 5.89758 11.2335 6.09998C11.2335 6.30237 11.3982 6.46664 11.6002 6.46664ZM6.10023 11.5999C6.30226 11.5999 6.46689 11.4356 6.46689 11.2332C6.46689 11.0308 6.30226 10.8665 6.10023 10.8665C5.89819 10.8665 5.73356 11.0308 5.73356 11.2332C5.73356 11.4356 5.89819 11.5999 6.10023 11.5999Z" fill="#00B2FF"/>
<path d="M10.8666 24.8674V19.5989C10.4412 19.4471 10.1336 19.0438 10.1336 18.5664C10.1336 17.9599 10.6271 17.4664 11.2336 17.4664C11.711 17.4664 12.1143 17.774 12.2661 18.1997H16.0677C16.2195 17.774 16.6228 17.4664 17.1002 17.4664C17.5776 17.4664 17.981 17.774 18.1328 18.1997H20.2484L21.6106 16.8376C21.5416 16.6942 21.5002 16.5358 21.5002 16.3664C21.5002 15.76 21.9937 15.2665 22.6002 15.2665C23.2067 15.2665 23.7002 15.76 23.7002 16.3664C23.7002 16.9729 23.2067 17.4664 22.6002 17.4664C22.4308 17.4664 22.2724 17.425 22.129 17.356L20.6594 18.8256C20.5909 18.8945 20.4974 18.933 20.4002 18.933H18.1328C17.981 19.3587 17.5776 19.6664 17.1002 19.6664C16.6228 19.6664 16.2195 19.3587 16.0677 18.933H12.2657C12.155 19.2436 11.9105 19.4882 11.5999 19.5989V24.8674C12.0256 25.0192 12.3332 25.4225 12.3332 25.8999C12.3332 26.5064 11.8397 26.9999 11.2332 26.9999C10.6268 26.9999 10.1332 26.5064 10.1332 25.8999C10.1332 25.4225 10.4409 25.0192 10.8666 24.8674ZM22.6002 16.7331C22.8022 16.7331 22.9669 16.5688 22.9669 16.3664C22.9669 16.164 22.8022 15.9998 22.6002 15.9998C22.3982 15.9998 22.2335 16.164 22.2335 16.3664C22.2335 16.5688 22.3982 16.7331 22.6002 16.7331ZM17.1002 18.933C17.3023 18.933 17.4669 18.7688 17.4669 18.5664C17.4669 18.364 17.3023 18.1997 17.1002 18.1997C16.8982 18.1997 16.7336 18.364 16.7336 18.5664C16.7336 18.7688 16.8982 18.933 17.1002 18.933ZM11.2336 26.2662C11.4356 26.2662 11.6003 26.102 11.6003 25.8996C11.6003 25.6972 11.4356 25.5329 11.2336 25.5329C11.0316 25.5329 10.8669 25.6972 10.8669 25.8996C10.8669 26.102 11.0316 26.2662 11.2336 26.2662ZM11.2336 18.933C11.4356 18.933 11.6003 18.7688 11.6003 18.5664C11.6003 18.364 11.4356 18.1997 11.2336 18.1997C11.0316 18.1997 10.8669 18.364 10.8669 18.5664C10.8669 18.7688 11.0316 18.933 11.2336 18.933Z" fill="#00B2FF"/>
<path d="M12.7003 12.4006V11.2332C12.7003 11.1357 12.7388 11.0425 12.8077 10.974L17.2106 6.57113C17.1417 6.42777 17.1003 6.26937 17.1003 6.09998C17.1003 5.49352 17.5938 5 18.2003 5C18.6777 5 19.081 5.30763 19.2328 5.73332H20.7669C20.9693 5.73332 21.1336 5.89721 21.1336 6.09998V7.04816L22.4957 8.41029C22.6391 8.34136 22.7975 8.29993 22.9669 8.29993C23.5734 8.29993 24.0669 8.79345 24.0669 9.39991C24.0669 10.0064 23.5734 10.4999 22.9669 10.4999C22.3604 10.4999 21.8669 10.0064 21.8669 9.39991C21.8669 9.23051 21.9083 9.07211 21.9773 8.92875L20.5077 7.45918C20.4387 7.39062 20.4002 7.29748 20.4002 7.19995V6.46664H19.2328C19.081 6.89233 18.6777 7.19995 18.2003 7.19995C18.0309 7.19995 17.8725 7.15852 17.7291 7.08959L13.4336 11.385V12.4006C13.8593 12.5524 14.1669 12.9558 14.1669 13.4332C14.1669 14.0396 13.6734 14.5331 13.0669 14.5331C12.4605 14.5331 11.9669 14.0396 11.9669 13.4332C11.9669 12.9558 12.2746 12.5524 12.7003 12.4006ZM22.9669 9.76657C23.1689 9.76657 23.3336 9.6023 23.3336 9.39991C23.3336 9.19751 23.1689 9.03325 22.9669 9.03325C22.7649 9.03325 22.6002 9.19751 22.6002 9.39991C22.6002 9.6023 22.7649 9.76657 22.9669 9.76657ZM18.2003 6.46664C18.4023 6.46664 18.5669 6.30237 18.5669 6.09998C18.5669 5.89758 18.4023 5.73332 18.2003 5.73332C17.9982 5.73332 17.8336 5.89758 17.8336 6.09998C17.8336 6.30237 17.9982 6.46664 18.2003 6.46664ZM13.0669 13.7998C13.269 13.7998 13.4336 13.6355 13.4336 13.4332C13.4336 13.2308 13.269 13.0665 13.0669 13.0665C12.8649 13.0665 12.7003 13.2308 12.7003 13.4332C12.7003 13.6355 12.8649 13.7998 13.0669 13.7998Z" fill="#00B2FF"/>
<path d="M13.8001 15.2664C14.2775 15.2664 14.6808 15.5741 14.8326 15.9998H19.1482L21.2408 13.9072C21.3094 13.8383 21.4029 13.7998 21.5 13.7998H25.3815L26.2667 12.9147V9.91836L23.4378 7.08959C23.2945 7.15852 23.1361 7.19995 22.9667 7.19995C22.3602 7.19995 21.8667 6.70643 21.8667 6.09998C21.8667 5.49352 22.3602 5 22.9667 5C23.5731 5 24.0667 5.49352 24.0667 6.09998C24.0667 6.26937 24.0252 6.42777 23.9563 6.57113L26.8926 9.50734C26.9615 9.5759 27 9.66903 27 9.76657V13.0665C27 13.164 26.9615 13.2572 26.8926 13.3257L25.7926 14.4257C25.724 14.4946 25.6305 14.5331 25.5333 14.5331H21.6518L19.5593 16.6257C19.4907 16.6946 19.3972 16.7331 19.3 16.7331H14.8326C14.6808 17.1588 14.2775 17.4664 13.8001 17.4664C13.1936 17.4664 12.7001 16.9729 12.7001 16.3664C12.7001 15.76 13.1936 15.2664 13.8001 15.2664ZM22.9667 5.73332C22.7647 5.73332 22.6 5.89758 22.6 6.09998C22.6 6.30237 22.7647 6.46664 22.9667 6.46664C23.1687 6.46664 23.3333 6.30237 23.3333 6.09998C23.3333 5.89758 23.1687 5.73332 22.9667 5.73332ZM13.8001 16.7331C14.0021 16.7331 14.1667 16.5688 14.1667 16.3664C14.1667 16.164 14.0021 15.9998 13.8001 15.9998C13.598 15.9998 13.4334 16.164 13.4334 16.3664C13.4334 16.5688 13.598 16.7331 13.8001 16.7331Z" fill="#00B2FF"/>
<path d="M6.09999 13.7998C6.26939 13.7998 6.42778 13.8412 6.57115 13.9102L7.93331 12.548V10.4324C7.50761 10.2806 7.19998 9.87729 7.19998 9.3999C7.19998 8.79345 7.69351 8.29993 8.29998 8.29993C8.90644 8.29993 9.39997 8.79345 9.39997 9.3999C9.39997 9.87729 9.09234 10.2806 8.66664 10.4324V12.6998C8.66664 12.7974 8.62814 12.8905 8.55921 12.9591L7.08962 14.4286C7.15855 14.572 7.19998 14.7304 7.19998 14.8998C7.19998 15.3772 6.89235 15.7805 6.46665 15.9323V16.2146L9.29254 19.0405C9.36147 19.109 9.39997 19.2022 9.39997 19.2997V19.7338C9.82567 19.8856 10.1333 20.2889 10.1333 20.7663C10.1333 21.2437 9.82567 21.647 9.39997 21.7988V22.6675C9.82567 22.8193 10.1333 23.2226 10.1333 23.7C10.1333 24.3064 9.63977 24.7999 9.03331 24.7999C8.42684 24.7999 7.93331 24.3064 7.93331 23.7C7.93331 23.2226 8.24094 22.8193 8.66664 22.6675V21.7988C8.24094 21.647 7.93331 21.2437 7.93331 20.7663C7.93331 20.2889 8.24094 19.8856 8.66664 19.7338V19.4515L5.84075 16.6256C5.77182 16.5571 5.73332 16.464 5.73332 16.3664V15.9323C5.30762 15.7805 4.99999 15.3772 4.99999 14.8998C4.99999 14.2933 5.49352 13.7998 6.09999 13.7998ZM8.29998 9.76656C8.50201 9.76656 8.66664 9.6023 8.66664 9.3999C8.66664 9.19751 8.50201 9.03324 8.29998 9.03324C8.09794 9.03324 7.93331 9.19751 7.93331 9.3999C7.93331 9.6023 8.09794 9.76656 8.29998 9.76656ZM9.03331 24.0663C9.23534 24.0663 9.39997 23.902 9.39997 23.6996C9.39997 23.4972 9.23534 23.3329 9.03331 23.3329C8.83127 23.3329 8.66664 23.4972 8.66664 23.6996C8.66664 23.902 8.83127 24.0663 9.03331 24.0663ZM9.03331 21.133C9.23534 21.133 9.39997 20.9687 9.39997 20.7663C9.39997 20.5639 9.23534 20.3997 9.03331 20.3997C8.83127 20.3997 8.66664 20.5639 8.66664 20.7663C8.66664 20.9687 8.83127 21.133 9.03331 21.133ZM6.09999 15.2664C6.30202 15.2664 6.46665 15.1022 6.46665 14.8998C6.46665 14.6974 6.30202 14.5331 6.09999 14.5331C5.89795 14.5331 5.73332 14.6974 5.73332 14.8998C5.73332 15.1022 5.89795 15.2664 6.09999 15.2664Z" fill="#00B2FF"/>
</svg>
